<?xml version="1.0" encoding="utf-8"?>
<!-- Svg Vector Icons : http://www.onlinewebfonts.com/icon -->
<!DOCTYPE svg PUBLIC "-//W3C//DTD SVG 1.1//EN" "http://www.w3.org/Graphics/SVG/1.1/DTD/svg11.dtd">
<svg version="1.1" xmlns="http://www.w3.org/2000/svg" xmlns:xlink="http://www.w3.org/1999/xlink" x="0px" y="0px" viewBox="0 0 256 256" enable-background="new 0 0 256 256" xml:space="preserve">
<metadata> Svg Vector Icons : http://www.onlinewebfonts.com/icon </metadata>
<g><g><path fill="#000000" d="M128,76.7c-21.7,0-30.8,5.3-30.8,41c0,35.8,4.7,41,30.8,41c26.1,0,30.8-5.2,30.8-41C158.8,82,149.7,76.7,128,76.7z M128,10C62.9,10,10,62.9,10,128c0,65.1,52.9,118,118,118c65.1,0,118-52.9,118-118C246,62.9,193.1,10,128,10z M222.7,179.2c-0.2,0.4-0.4,0.7-0.6,1.1c-6,10.7-13.8,20.3-22.9,28.3l-3.4-4.8c-9.3-13.2-29.6-18.9-67.8-18.9c-38.2,0-58.5,5.7-67.8,18.9l-3.4,4.8c-9.1-8.1-16.9-17.6-22.9-28.3c-0.2-0.4-0.4-0.7-0.6-1.1c-0.5-0.9-0.9-1.8-1.3-2.7c-7.4-14.7-11.4-31.1-11.4-48C20.5,69.2,68.7,21,128,21c59.3,0,107.5,48.2,107.5,107.5c0,17-4,33.3-11.4,48C223.6,177.4,223.2,178.4,222.7,179.2z"/></g></g>
</svg>